<?xml version="1.0" standalone="no"?>
<!DOCTYPE svg PUBLIC "-//W3C//DTD SVG 20010904//EN"
 "http://www.w3.org/TR/2001/REC-SVG-20010904/DTD/svg10.dtd">
<svg version="1.0" xmlns="http://www.w3.org/2000/svg"
 width="201.000000pt" height="201.000000pt" viewBox="0 0 201.000000 201.000000"
 preserveAspectRatio="xMidYMid meet">
<metadata>
Created by potrace 1.11, written by Peter Selinger 2001-2013
</metadata>
<g transform="translate(0.000000,201.000000) scale(0.100000,-0.100000)"
fill="#000000" stroke="none">
<path d="M97 1736 c-6 -16 1 -26 19 -26 14 0 12 32 -3 37 -6 2 -13 -3 -16 -11z"/>
<path d="M370 1730 c0 -17 7 -20 48 -20 53 0 63 5 55 26 -3 9 -21 14 -54 14
-42 0 -49 -3 -49 -20z"/>
<path d="M650 1730 c0 -18 7 -20 69 -20 60 0 69 2 74 20 5 19 0 20 -69 20 -67
0 -74 -2 -74 -20z"/>
<path d="M900 1732 c0 -20 5 -21 173 -21 96 -1 196 -5 223 -10 144 -28 266
-93 374 -199 l55 -54 -59 47 c-99 78 -217 128 -331 141 -27 3 -106 6 -175 6
-195 0 -192 0 -188 -19 3 -15 21 -17 148 -18 164 -2 223 -15 333 -72 37 -20
96 -62 130 -95 l62 -59 -55 41 c-142 104 -205 117 -572 117 -270 0 -287 -1
-291 -19 -5 -17 7 -18 249 -19 140 -1 257 -2 262 -3 4 -1 25 -5 46 -10 69 -13
165 -66 224 -123 l57 -54 -50 35 c-28 19 -73 45 -100 58 -49 22 -58 23 -457
26 -397 3 -408 3 -408 -16 0 -18 12 -19 348 -20 295 0 354 -2 392 -16 68 -25
121 -60 170 -112 l45 -48 -42 32 c-23 18 -63 42 -90 55 -47 21 -57 22 -490 24
-437 3 -443 3 -443 -17 0 -11 6 -20 13 -21 6 0 192 -1 412 -3 397 -2 400 -2
448 -25 26 -13 50 -27 53 -32 3 -5 -184 -9 -433 -8 -241 0 -444 0 -450 -1 -7
0 -13 -9 -13 -20 0 -20 7 -20 473 -20 446 0 475 -1 490 -18 42 -46 39 -47
-310 -47 -321 0 -328 0 -328 -20 0 -20 7 -20 339 -20 330 0 339 -1 347 -20 18
-47 31 -45 -376 -45 -378 0 -385 0 -385 -20 0 -20 7 -20 379 -20 217 0 382 -4
385 -9 4 -5 2 -20 -3 -33 l-8 -23 -249 0 c-245 0 -249 0 -252 -21 -3 -20 0
-21 238 -21 132 0 242 -2 245 -5 3 -3 -4 -17 -16 -31 l-20 -27 -330 0 c-322 0
-329 0 -329 -20 0 -14 7 -20 23 -20 12 -1 149 -1 305 -1 197 0 281 -3 276 -11
-4 -5 -27 -20 -53 -32 -44 -20 -62 -21 -386 -23 -187 -1 -345 -2 -352 -2 -6
-1 -9 -10 -6 -22 6 -20 9 -20 382 -17 368 3 377 4 426 26 28 13 68 37 90 54
38 29 37 28 -10 -21 -57 -60 -147 -108 -220 -119 -28 -4 -179 -7 -337 -6 -275
1 -286 0 -275 -18 11 -17 33 -18 347 -18 271 0 347 3 395 16 61 15 130 50 176
88 14 11 0 -4 -31 -34 -30 -30 -81 -68 -112 -83 -100 -51 -138 -56 -426 -57
-146 0 -268 -2 -269 -4 -2 -2 3 -11 11 -19 13 -13 58 -15 303 -15 195 1 308 5
351 14 76 16 170 62 237 117 l50 40 -45 -48 c-62 -66 -163 -129 -256 -161 -75
-26 -89 -27 -304 -30 -124 -1 -227 -3 -230 -3 -2 -1 6 -9 20 -18 35 -24 463
-24 560 1 92 23 204 79 269 133 l56 47 -45 -48 c-51 -54 -155 -126 -233 -160
-82 -37 -190 -57 -311 -58 -104 -2 -108 -3 -71 -14 61 -19 295 -17 374 2 288
72 511 316 561 614 13 79 6 234 -14 310 -55 209 -207 394 -400 489 -135 66
-171 73 -443 78 -240 5 -243 5 -243 -15z"/>
<path d="M736 1642 c-9 -2 -16 -11 -14 -20 2 -13 17 -16 70 -17 56 -1 68 2 71
17 3 10 0 18 -6 19 -55 3 -106 3 -121 1z"/>
<path d="M400 1633 c1 -26 40 -37 68 -20 24 15 12 27 -28 27 -22 0 -40 -3 -40
-7z"/>
<path d="M165 1532 c-16 -17 -2 -32 30 -32 28 0 35 4 35 19 0 15 -7 19 -30 19
-16 -1 -32 -3 -35 -6z"/>
<path d="M485 1532 c-3 -3 -5 -11 -5 -19 0 -10 18 -13 70 -13 61 0 70 2 70 18
0 15 -9 18 -65 18 -36 1 -67 -1 -70 -4z"/>
<path d="M22 1413 c2 -10 11 -19 20 -21 12 -2 15 2 11 17 -7 25 -36 28 -31 4z"/>
<path d="M302 1413 c3 -15 15 -18 71 -20 61 -2 67 -1 67 17 0 18 -7 20 -71 20
-62 0 -70 -2 -67 -17z"/>
<path d="M230 1310 c0 -19 23 -29 53 -22 9 2 17 12 17 22 0 14 -8 18 -35 18
-27 0 -35 -4 -35 -18z"/>
<path d="M148 1222 c-31 -4 -31 -4 -22 -26 5 -13 25 -16 120 -16 107 0 114 1
114 20 0 11 -6 20 -12 21 -50 3 -178 3 -200 1z"/>
<path d="M342 1097 c5 -34 68 -32 68 3 0 14 -8 18 -36 18 -30 0 -35 -3 -32
-21z"/>
<path d="M546 1104 c-8 -20 22 -31 79 -29 68 3 67 3 63 23 -3 14 -15 17 -70
18 -48 1 -68 -2 -72 -12z"/>
<path d="M159 1008 c-10 -33 -6 -38 30 -38 30 0 37 4 37 20 0 16 -7 20 -33 20
-18 0 -33 -1 -34 -2z"/>
<path d="M473 990 c1 -19 7 -21 71 -18 57 2 70 6 72 21 2 15 -7 17 -71 17 -68
0 -74 -2 -72 -20z"/>
<path d="M267 896 c-6 -17 3 -36 19 -36 8 0 14 10 14 23 0 24 -26 34 -33 13z"/>
<path d="M445 902 c-3 -3 -5 -13 -5 -22 0 -14 10 -17 49 -17 35 0 52 4 56 15
3 8 3 17 1 19 -7 7 -94 11 -101 5z"/>
<path d="M723 893 c-9 -24 7 -31 72 -31 60 0 65 2 65 22 0 19 -5 21 -66 21
-44 1 -68 -4 -71 -12z"/>
<path d="M63 780 c1 -11 7 -20 14 -20 7 0 13 9 13 20 0 11 -6 20 -14 20 -9 0
-14 -9 -13 -20z"/>
<path d="M230 780 c0 -17 7 -20 53 -20 46 0 53 3 53 20 0 17 -7 20 -53 20 -46
0 -53 -3 -53 -20z"/>
<path d="M510 781 c0 -22 27 -28 98 -22 33 2 42 7 42 22 0 17 -8 19 -70 19
-63 0 -70 -2 -70 -19z"/>
</g>
</svg>
